<svg width="209" height="48" viewBox="0 0 209 48" fill="none" xmlns="http://www.w3.org/2000/svg">
<path d="M22.4967 18.4061C24.6998 18.4061 26.4858 16.6198 26.4858 14.4164C26.4858 12.213 24.6998 10.4268 22.4967 10.4268C20.2936 10.4268 18.5076 12.213 18.5076 14.4164C18.5076 16.6198 20.2936 18.4061 22.4967 18.4061Z" fill="#4CBB17"/>
<path d="M27.1718 28.7385C25.9573 31.1424 23.574 32.967 20.8604 33.9937C20.0981 34.2833 19.3155 34.507 18.5177 34.6645C14.6353 35.5133 12.1148 34.6696 10.4937 33.5007C9.97029 33.1246 9.54342 32.718 9.19279 32.3165C9.1064 32.2148 9.02001 32.1132 8.9387 32.0064C8.34923 31.2339 7.9681 30.3191 7.90204 29.3992C7.81057 28.1134 8.28316 26.797 9.2182 25.8466C8.47119 27.3459 8.22218 29.0536 8.51692 30.685C9.83308 29.943 10.6055 28.4335 10.3921 27.0054C10.2549 26.0855 9.75177 25.1961 9.90423 24.2812C8.63888 24.759 7.55648 25.6789 7.01274 26.8478C6.469 28.0168 6.50457 29.4297 7.18552 30.5326C6.12344 29.7753 4.70565 29.4703 3.39457 29.7092C2.65265 29.8464 1.94629 30.1565 1.35173 30.5986C1.05699 30.8172 0.782581 31.0713 0.548823 31.3508C0.492925 31.422 0.0152451 32.1945 0 32.1945C1.16371 32.2758 2.21562 32.9009 3.37425 33.0331C4.70565 33.1856 6.1082 32.6112 6.89586 31.5948C5.163 31.3 3.31835 31.1069 1.68712 31.7269C2.91689 31.1069 4.31944 30.6037 5.6915 30.868C6.40294 31.0052 7.0229 31.3203 7.60222 31.7117C8.63888 32.3216 9.33508 32.7942 10.2142 33.6074C11.9064 36.3366 15.9921 38.5322 20.4792 37.348C25.1646 36.1181 27.4158 32.0369 27.1718 28.7385Z" fill="#4CBB17"/>
<path d="M31.6997 17.5117C30.8917 16.7239 30.0329 16.0175 29.1334 15.3974C28.9251 15.2551 28.7167 15.1128 28.5033 14.9756C28.2899 17.1661 26.8467 19.0059 24.8496 19.8292C25.002 19.9512 25.1596 20.0732 25.312 20.2003C26.7959 21.4353 27.9138 22.8634 28.5745 24.5355C29.4231 27.0564 29.8246 30.5429 27.4921 34.4055C25.6322 37.0788 22.4459 39.0558 19.0819 39.254C14.8844 39.498 11.6168 37.9784 9.25385 34.7714C9.10648 34.5681 8.9642 34.3648 8.83715 34.1514C8.38488 33.7956 7.98851 33.4957 7.64296 33.2467L1.40771 34.8171C1.4128 34.8375 1.42296 34.8578 1.42804 34.8781C2.37324 37.5819 3.97397 40.1485 6.215 42.334C13.6648 49.5916 25.4136 49.9219 32.4467 43.0658C39.4849 36.2148 39.1495 24.7744 31.6997 17.5117Z" fill="#0567E1"/>
<path d="M32.7313 3.96715C32.0605 3.39284 31.3338 2.85919 30.5462 2.38653C23.2997 -2.00463 13.9697 -0.164813 9.71121 6.49817C5.45275 13.1611 7.87672 22.1264 15.1232 26.5227C17.2779 27.8289 19.6154 28.581 21.9479 28.825C22.1664 28.8504 22.2935 28.8555 22.324 28.8606V23.3208C21.4957 23.1073 20.2303 22.6906 19.0615 21.9689C16.9984 20.6678 15.7178 18.706 15.2553 16.0733C14.798 13.4508 15.8143 10.6403 17.6387 8.72425C20.3421 6.21864 23.2387 5.88829 25.434 6.08141C26.9077 6.27963 28.2696 6.87935 29.54 7.78909C29.6721 7.88057 29.7992 7.97714 29.9262 8.0737L33.1734 4.37882L33.1836 4.36866C33.0362 4.23143 32.8888 4.09929 32.7313 3.96715Z" fill="#18027C"/>
<path d="M57.23 9.54248V23.5342C57.23 25.6129 56.6608 27.2088 55.5225 28.332C54.3842 29.4552 52.8546 30.0142 50.9236 30.0142C48.9062 30.0142 47.2851 29.4247 46.0655 28.2456C44.8459 27.0665 44.2361 25.3944 44.2361 23.2242H48.8757C48.8757 24.0476 49.0383 24.6676 49.3686 25.0894C49.6938 25.5113 50.1664 25.7197 50.7864 25.7197C51.3505 25.7197 51.7875 25.5316 52.0975 25.1606C52.4074 24.7845 52.5599 24.2458 52.5599 23.5342V9.54248H57.23Z" fill="#0567E1"/>
<path d="M61.3362 13.8421C60.8178 13.3339 60.5586 12.6986 60.5586 11.9464C60.5586 11.1739 60.8178 10.5335 61.3362 10.0252C61.8546 9.51701 62.5255 9.25781 63.3437 9.25781C64.1467 9.25781 64.8024 9.51193 65.3208 10.0252C65.8392 10.5386 66.0984 11.1789 66.0984 11.9464C66.0984 12.6986 65.8392 13.3288 65.3208 13.8421C64.8024 14.3554 64.1417 14.6095 63.3437 14.6095C62.5204 14.6095 61.8546 14.3554 61.3362 13.8421Z" fill="#0567E1"/>
<path d="M65.6612 15.9463H60.9956V30.0194H65.6612V15.9463Z" fill="#0567E1"/>
<path d="M75.5952 14.945C76.4134 14.508 77.3484 14.2894 78.4054 14.2894C79.6606 14.2894 80.7989 14.6096 81.8152 15.2449C82.8316 15.8802 83.6396 16.7899 84.229 17.9741C84.8185 19.1583 85.1183 20.5306 85.1183 22.0959C85.1183 23.6613 84.8236 25.0386 84.229 26.233C83.6396 27.4222 82.8316 28.3422 81.8152 28.9876C80.7938 29.6331 79.6606 29.9583 78.4054 29.9583C77.3332 29.9583 76.3931 29.7449 75.5952 29.318C74.7923 28.891 74.1673 28.3218 73.7099 27.6103V30.0193H69.0449V9.54248H73.7099V16.668C74.1469 15.9564 74.772 15.3821 75.5952 14.945ZM79.4014 19.3514C78.756 18.6857 77.9582 18.3553 77.013 18.3553C76.0831 18.3553 75.3005 18.6907 74.6551 19.3667C74.0097 20.0376 73.6845 20.9575 73.6845 22.1213C73.6845 23.2852 74.0097 24.2051 74.6551 24.876C75.3005 25.5469 76.0882 25.8874 77.013 25.8874C77.943 25.8874 78.7306 25.5469 79.3862 24.8658C80.0417 24.1848 80.3669 23.2598 80.3669 22.0959C80.3669 20.9321 80.0468 20.0172 79.4014 19.3514Z" fill="#0567E1"/>
<path d="M90.4796 29.0638C89.2904 28.4285 88.3503 27.5188 87.6694 26.3346C86.9884 25.1504 86.6479 23.768 86.6479 22.1874C86.6479 20.622 86.9935 19.2447 87.6846 18.0554C88.3757 16.8662 89.3209 15.9513 90.5202 15.311C91.7195 14.6757 93.0661 14.3555 94.5602 14.3555C96.0491 14.3555 97.3957 14.6757 98.6001 15.311C99.7994 15.9462 100.745 16.8611 101.436 18.0554C102.127 19.2447 102.472 20.6271 102.472 22.1874C102.472 23.7528 102.122 25.1301 101.42 26.3244C100.719 27.5188 99.7638 28.4285 98.5544 29.0689C97.3449 29.7042 95.9932 30.0244 94.5043 30.0244C93.0102 30.0193 91.6687 29.6991 90.4796 29.0638ZM96.7809 24.9929C97.411 24.3372 97.721 23.4021 97.721 22.1823C97.721 20.9625 97.4161 20.0274 96.8063 19.3718C96.1965 18.7161 95.4444 18.3909 94.5551 18.3909C93.6455 18.3909 92.8883 18.7161 92.2886 19.3616C91.689 20.0071 91.3892 20.9473 91.3892 22.1874C91.3892 23.4072 91.6839 24.3423 92.2785 24.9979C92.8679 25.6536 93.6099 25.9788 94.5043 25.9788C95.3936 25.9788 96.1558 25.6485 96.7809 24.9929Z" fill="#0567E1"/>
<path d="M118.5 16.3581C119.562 17.5118 120.096 19.1026 120.096 21.1203V30.0195H115.456V21.7454C115.456 20.7289 115.192 19.9361 114.663 19.3719C114.135 18.8078 113.429 18.5232 112.534 18.5232C111.645 18.5232 110.933 18.8078 110.405 19.3719C109.877 19.9361 109.612 20.7289 109.612 21.7454V30.0144H104.947V14.7876H109.612V16.8053C110.085 16.1345 110.72 15.6008 111.523 15.2095C112.326 14.8181 113.225 14.625 114.226 14.625C116.015 14.625 117.438 15.2044 118.5 16.3581Z" fill="#0567E1"/>
<path d="M126.509 29.3078C125.401 28.8352 124.512 28.1338 123.846 27.2088C123.18 26.2838 122.83 25.1657 122.794 23.8596H127.759C127.83 24.5965 128.079 25.1606 128.496 25.5469C128.912 25.9332 129.461 26.1314 130.132 26.1314C130.823 26.1314 131.367 25.9637 131.768 25.6333C132.17 25.3029 132.368 24.8455 132.368 24.256C132.368 23.763 132.21 23.3564 131.89 23.0362C131.57 22.716 131.179 22.4517 130.716 22.2434C130.254 22.035 129.593 21.8012 128.74 21.5318C127.5 21.1354 126.493 20.739 125.711 20.3375C124.928 19.941 124.257 19.3515 123.693 18.579C123.129 17.8014 122.85 16.79 122.85 15.5397C122.85 13.6847 123.495 12.2311 124.786 11.179C126.077 10.127 127.759 9.60352 129.832 9.60352C131.941 9.60352 133.643 10.127 134.934 11.179C136.225 12.2311 136.916 13.6897 137.007 15.5651H131.961C131.926 14.9197 131.697 14.4165 131.28 14.0455C130.864 13.6745 130.325 13.4915 129.669 13.4915C129.105 13.4915 128.653 13.6491 128.308 13.9591C127.962 14.2691 127.789 14.7215 127.789 15.3059C127.789 15.9514 128.079 16.4495 128.663 16.8103C129.248 17.1712 130.152 17.5574 131.392 17.9742C132.627 18.4113 133.633 18.828 134.406 19.2244C135.178 19.6209 135.849 20.2002 136.413 20.9575C136.977 21.7148 137.262 22.6906 137.262 23.8799C137.262 25.0183 136.982 26.0501 136.428 26.975C135.874 27.9051 135.066 28.6421 134.014 29.191C132.957 29.7398 131.712 30.0143 130.274 30.0143C128.877 30.0194 127.622 29.7805 126.509 29.3078Z" fill="#18027C"/>
<path d="M153.691 16.3577C154.748 17.5114 155.271 19.1022 155.271 21.1199V30.0191H150.632V21.745C150.632 20.7285 150.367 19.9357 149.839 19.3715C149.31 18.8074 148.604 18.5228 147.71 18.5228C146.82 18.5228 146.109 18.8074 145.58 19.3715C145.052 19.9357 144.788 20.7285 144.788 21.745V30.014H140.123V9.82178H144.788V16.8354C145.26 16.1646 145.906 15.6258 146.724 15.2243C147.542 14.8228 148.462 14.6246 149.478 14.6246C151.231 14.6246 152.634 15.204 153.691 16.3577Z" fill="#18027C"/>
<path d="M172.793 23.3055H162.233C162.304 24.2508 162.609 24.9725 163.148 25.4757C163.686 25.9788 164.342 26.2279 165.125 26.2279C166.288 26.2279 167.096 25.7349 167.554 24.754H172.518C172.264 25.7552 171.802 26.6548 171.141 27.4578C170.476 28.2608 169.647 28.886 168.646 29.3383C167.645 29.7957 166.527 30.0193 165.292 30.0193C163.798 30.0193 162.472 29.6991 161.308 29.0638C160.145 28.4285 159.235 27.5188 158.579 26.3346C157.924 25.1504 157.599 23.768 157.599 22.1874C157.599 20.6068 157.924 19.2244 158.569 18.0402C159.215 16.856 160.119 15.9462 161.283 15.311C162.447 14.6757 163.783 14.3555 165.292 14.3555C166.766 14.3555 168.077 14.6655 169.22 15.2855C170.369 15.9056 171.263 16.7848 171.909 17.9335C172.554 19.0821 172.879 20.4187 172.879 21.9434C172.874 22.3754 172.844 22.8278 172.793 23.3055ZM168.097 20.7084C168.097 19.9054 167.823 19.2701 167.279 18.7975C166.736 18.3248 166.049 18.0859 165.231 18.0859C164.449 18.0859 163.788 18.3146 163.255 18.767C162.716 19.2244 162.386 19.8698 162.259 20.7033H168.097V20.7084Z" fill="#18027C"/>
<path d="M181.879 14.945C182.697 14.508 183.632 14.2894 184.689 14.2894C185.944 14.2894 187.083 14.6096 188.099 15.2449C189.115 15.8802 189.923 16.7899 190.513 17.9741C191.102 19.1583 191.402 20.5306 191.402 22.0959C191.402 23.6613 191.107 25.0386 190.513 26.233C189.923 27.4222 189.115 28.3422 188.099 28.9876C187.083 29.6331 185.944 29.9583 184.689 29.9583C183.617 29.9583 182.677 29.7449 181.879 29.318C181.076 28.891 180.451 28.3218 179.999 27.6103V30.0193H175.334V9.54248H179.999V16.668C180.431 15.9564 181.056 15.3821 181.879 14.945ZM185.685 19.3514C185.04 18.6857 184.242 18.3553 183.297 18.3553C182.367 18.3553 181.584 18.6907 180.939 19.3667C180.293 20.0376 179.968 20.9575 179.968 22.1213C179.968 23.2852 180.293 24.2051 180.939 24.876C181.584 25.5469 182.372 25.8874 183.297 25.8874C184.227 25.8874 185.014 25.5469 185.67 24.8658C186.325 24.1848 186.651 23.2598 186.651 22.0959C186.651 20.9321 186.331 20.0172 185.685 19.3514Z" fill="#18027C"/>
<path d="M193.816 18.0353C194.405 16.8511 195.213 15.9414 196.23 15.3061C197.246 14.6708 198.384 14.3506 199.64 14.3506C200.712 14.3506 201.652 14.5691 202.465 15.0062C203.273 15.4433 203.898 16.0176 204.335 16.7241V14.5691H209V29.7959H204.335V27.641C203.883 28.3525 203.248 28.9217 202.44 29.3588C201.632 29.7959 200.686 30.0144 199.614 30.0144C198.379 30.0144 197.251 29.6892 196.23 29.0437C195.213 28.3982 194.405 27.4783 193.816 26.2891C193.226 25.0998 192.932 23.7174 192.932 22.152C192.927 20.5917 193.226 19.2195 193.816 18.0353ZM203.364 19.4279C202.719 18.757 201.931 18.4165 201.007 18.4165C200.077 18.4165 199.294 18.7468 198.649 19.4126C198.003 20.0784 197.678 20.9932 197.678 22.1571C197.678 23.321 198.003 24.246 198.649 24.927C199.294 25.608 200.082 25.9485 201.007 25.9485C201.936 25.9485 202.719 25.6131 203.364 24.9372C204.01 24.2663 204.335 23.3464 204.335 22.1825C204.335 21.0187 204.01 20.0987 203.364 19.4279Z" fill="#18027C"/>
<path d="M46.6908 42.6389C46.3656 42.522 46.1064 42.3492 45.9132 42.1205C45.7201 41.8918 45.6235 41.6224 45.6235 41.3124C45.6235 41.2717 45.6286 41.2006 45.6439 41.0989H46.7264C46.701 41.3632 46.7874 41.5868 46.9856 41.7596C47.1838 41.9375 47.4684 42.0239 47.8394 42.0239C48.2359 42.0239 48.5459 41.9527 48.7695 41.8054C48.9931 41.658 49.105 41.4445 49.105 41.1701C49.105 41.0023 49.0491 40.86 48.9372 40.7431C48.8254 40.6262 48.6831 40.5246 48.5154 40.4433C48.3477 40.362 48.1139 40.2654 47.814 40.1587C47.4176 40.0113 47.1025 39.8741 46.8687 39.7521C46.6349 39.6301 46.4316 39.4624 46.2588 39.2489C46.0911 39.0355 46.0047 38.7661 46.0047 38.4459C46.0047 38.0901 46.1064 37.775 46.3097 37.5108C46.5129 37.2414 46.7976 37.0381 47.1584 36.8907C47.5193 36.7484 47.9258 36.6772 48.3782 36.6772C48.8305 36.6772 49.2219 36.7433 49.5522 36.8805C49.8826 37.0178 50.1316 37.2058 50.2993 37.4498C50.467 37.6937 50.5433 37.9783 50.5229 38.3087H49.3743C49.3997 38.0749 49.3184 37.8767 49.1355 37.714C48.9525 37.5565 48.6831 37.4752 48.3324 37.4752C47.9614 37.4752 47.6666 37.5514 47.4481 37.7039C47.2296 37.8564 47.1178 38.0647 47.1178 38.3239C47.1178 38.4866 47.1737 38.6238 47.2855 38.7407C47.3973 38.8576 47.5396 38.9592 47.7124 39.0405C47.8852 39.1269 48.119 39.2235 48.4138 39.3404C48.8102 39.503 49.1253 39.6453 49.3642 39.7724C49.603 39.8995 49.8114 40.0723 49.9842 40.2857C50.157 40.4992 50.2434 40.7685 50.2434 41.0837C50.2434 41.4191 50.1418 41.7139 49.9385 41.9782C49.7352 42.2424 49.4455 42.4457 49.0745 42.5931C48.7034 42.7405 48.2816 42.8117 47.7988 42.8117C47.3871 42.8167 47.0161 42.7558 46.6908 42.6389Z" fill="#5E5E5E"/>
<path d="M55.721 37.9937L54.791 42.7558H53.6982L54.6283 37.9937H55.721ZM54.8875 37.2161C54.7808 37.1195 54.7249 36.9924 54.7249 36.8451C54.7249 36.6418 54.8113 36.469 54.979 36.3216C55.1467 36.1742 55.3398 36.103 55.5584 36.103C55.7312 36.103 55.8684 36.1539 55.9751 36.2504C56.0819 36.347 56.1327 36.474 56.1327 36.6214C56.1327 36.8247 56.0514 36.9975 55.8837 37.1449C55.7159 37.2923 55.5279 37.3635 55.3094 37.3635C55.1366 37.3635 54.9942 37.3126 54.8875 37.2161Z" fill="#5E5E5E"/>
<path d="M67.4745 38.3241C67.8048 38.5934 67.9725 38.9797 67.9725 39.4727C67.9725 39.6048 67.9573 39.7624 67.9268 39.9453L67.3729 42.7559H66.2905L66.819 40.0927C66.8444 39.9301 66.8597 39.8183 66.8597 39.7471C66.8597 39.432 66.7631 39.1881 66.57 39.0204C66.3769 38.8526 66.1076 38.7713 65.762 38.7713C65.3453 38.7713 64.9997 38.8831 64.7152 39.1118C64.4306 39.3405 64.2527 39.6658 64.1765 40.0927L63.648 42.7559H62.5656L63.0941 40.0927C63.1195 39.9301 63.1348 39.8183 63.1348 39.7471C63.1348 39.432 63.0382 39.1881 62.8451 39.0204C62.652 38.8526 62.3827 38.7713 62.0371 38.7713C61.6204 38.7713 61.2749 38.8831 60.9903 39.1118C60.7057 39.3405 60.5279 39.6658 60.4516 40.0927V40.0673L59.9231 42.7559H58.8306L59.7605 37.9937H60.8531L60.7464 38.5477C60.9547 38.3546 61.2088 38.197 61.5086 38.0852C61.8084 37.9734 62.1133 37.9175 62.4335 37.9175C62.8553 37.9175 63.2161 37.9988 63.521 38.1614C63.8259 38.3241 64.0342 38.5579 64.1562 38.8628C64.3645 38.5731 64.6593 38.3444 65.0252 38.1767C65.3961 38.009 65.7772 37.9226 66.1635 37.9226C66.7021 37.9175 67.1442 38.0496 67.4745 38.3241Z" fill="#5E5E5E"/>
<path d="M74.0965 38.1411C74.4421 37.9937 74.8182 37.9175 75.2197 37.9175C75.6212 37.9175 75.9769 37.9937 76.292 38.1513C76.6021 38.3088 76.846 38.5274 77.0188 38.8171C77.1916 39.1068 77.278 39.4422 77.278 39.8285C77.278 39.9962 77.2577 40.169 77.2221 40.357C77.1256 40.8348 76.9324 41.2617 76.6427 41.6378C76.353 42.0139 75.9973 42.3086 75.5805 42.517C75.1638 42.7254 74.7216 42.8321 74.2642 42.8321C73.8627 42.8321 73.5171 42.761 73.2325 42.6136C72.9478 42.4662 72.7242 42.2832 72.5667 42.0647L71.9924 45.0175H70.8997L72.2668 37.9937H73.3595L73.2274 38.6951C73.4561 38.4765 73.7458 38.2885 74.0965 38.1411ZM76.1497 39.9962C76.1497 39.6099 76.0227 39.31 75.7736 39.0915C75.5195 38.878 75.2044 38.7662 74.8232 38.7662C74.5488 38.7662 74.2743 38.8272 74.005 38.9543C73.7356 39.0813 73.4967 39.2643 73.3036 39.5083C73.1054 39.7522 72.9733 40.0368 72.9123 40.3621C72.8869 40.4739 72.8716 40.5908 72.8716 40.7179C72.8716 41.1041 72.9987 41.4091 73.2477 41.6327C73.5018 41.8563 73.8119 41.9681 74.193 41.9681C74.4726 41.9681 74.7521 41.9021 75.0215 41.775C75.2908 41.6429 75.5297 41.4548 75.7228 41.2109C75.921 40.9618 76.0532 40.6772 76.1142 40.3469C76.1345 40.2401 76.1497 40.1232 76.1497 39.9962Z" fill="#5E5E5E"/>
<path d="M82.7658 36.3623L81.5104 42.7559H80.4177L81.6731 36.3623H82.7658Z" fill="#5E5E5E"/>
<path d="M87.5477 37.9937L86.6176 42.7558H85.5249L86.455 37.9937H87.5477ZM86.7193 37.2161C86.6125 37.1195 86.5566 36.9924 86.5566 36.8451C86.5566 36.6418 86.643 36.469 86.8107 36.3216C86.9785 36.1742 87.1716 36.103 87.3901 36.103C87.5629 36.103 87.7002 36.1539 87.8069 36.2504C87.9136 36.347 87.9644 36.474 87.9644 36.6214C87.9644 36.8247 87.8831 36.9975 87.7154 37.1449C87.5477 37.2923 87.3596 37.3635 87.1411 37.3635C86.9632 37.3635 86.826 37.3126 86.7193 37.2161Z" fill="#5E5E5E"/>
<path d="M93.1883 37.079C93.0307 37.1958 92.924 37.389 92.8732 37.6583L92.8071 37.9938H93.7829L93.6305 38.7968H92.6546L91.877 42.756H90.7742L91.5518 38.7968H90.9317L91.0842 37.9938H91.7042L91.7703 37.6583C91.877 37.1094 92.1159 36.713 92.4869 36.464C92.8579 36.2149 93.3865 36.0879 94.0777 36.0879L93.9252 36.9112C93.5949 36.9061 93.3458 36.9621 93.1883 37.079Z" fill="#5E5E5E"/>
<path d="M97.9245 37.9937L98.7021 41.6225L100.954 37.9937H102.082L97.4874 44.9921H96.3591L97.8838 42.6745L96.7149 37.9937H97.9245Z" fill="#5E5E5E"/>
<path d="M106.579 37.9937L105.649 42.7558H104.556L105.486 37.9937H106.579ZM105.75 37.2161C105.644 37.1195 105.588 36.9924 105.588 36.8451C105.588 36.6418 105.674 36.469 105.842 36.3216C106.009 36.1742 106.203 36.103 106.421 36.103C106.594 36.103 106.731 36.1539 106.838 36.2504C106.945 36.347 106.995 36.474 106.995 36.6214C106.995 36.8247 106.914 36.9975 106.746 37.1449C106.579 37.2923 106.391 37.3635 106.172 37.3635C105.999 37.3635 105.857 37.3126 105.75 37.2161Z" fill="#5E5E5E"/>
<path d="M114.608 38.319C114.938 38.5884 115.101 38.9695 115.101 39.4727C115.101 39.5997 115.086 39.7573 115.055 39.9453L114.501 42.7559H113.419L113.947 40.0927C113.973 39.9301 113.983 39.8183 113.983 39.7471C113.983 39.432 113.886 39.1881 113.693 39.0204C113.5 38.8526 113.231 38.7713 112.885 38.7713C112.468 38.7713 112.123 38.8831 111.838 39.1118C111.554 39.3405 111.376 39.6658 111.299 40.0927V40.0673L110.771 42.7559H109.678L110.608 37.9937H111.701L111.594 38.5477C111.813 38.3546 112.067 38.197 112.367 38.0852C112.662 37.9734 112.972 37.9175 113.292 37.9175C113.836 37.9175 114.278 38.0496 114.608 38.319Z" fill="#5E5E5E"/>
<path d="M122.591 38.136C122.881 38.2834 123.089 38.4664 123.217 38.6849L123.349 37.9937H124.452L123.511 42.8321C123.42 43.2692 123.242 43.6606 122.978 44.0011C122.708 44.3416 122.363 44.611 121.936 44.8092C121.509 45.0074 121.026 45.1039 120.492 45.1039C120.025 45.1039 119.618 45.0379 119.268 44.9007C118.917 44.7634 118.653 44.5703 118.475 44.3162C118.297 44.0621 118.221 43.7622 118.246 43.4166H119.329C119.359 43.6656 119.496 43.8638 119.74 44.0163C119.984 44.1688 120.294 44.245 120.67 44.245C121.112 44.245 121.489 44.123 121.809 43.8842C122.129 43.6402 122.332 43.2895 122.424 42.8321L122.576 42.0393C122.347 42.2629 122.058 42.451 121.712 42.6034C121.367 42.7559 120.996 42.8321 120.594 42.8321C120.193 42.8321 119.837 42.7508 119.522 42.5882C119.207 42.4255 118.963 42.1968 118.79 41.9021C118.612 41.6073 118.526 41.2668 118.526 40.8805C118.526 40.7077 118.546 40.5298 118.581 40.3519C118.678 39.8742 118.871 39.4524 119.161 39.0813C119.45 38.7103 119.806 38.4257 120.228 38.2224C120.65 38.0191 121.092 37.9175 121.55 37.9175C121.951 37.9175 122.302 37.9886 122.591 38.136ZM122.932 40.0165C122.932 39.6302 122.805 39.3253 122.556 39.1068C122.302 38.8831 121.992 38.7764 121.61 38.7764C121.331 38.7764 121.057 38.8374 120.787 38.9644C120.518 39.0864 120.284 39.2694 120.091 39.5083C119.893 39.7471 119.761 40.0317 119.7 40.357C119.674 40.4637 119.664 40.5857 119.664 40.7128C119.664 41.1041 119.791 41.4141 120.04 41.6429C120.294 41.8716 120.604 41.9834 120.985 41.9834C121.265 41.9834 121.539 41.9224 121.809 41.7953C122.078 41.6683 122.312 41.4853 122.51 41.2363C122.708 40.9923 122.84 40.7077 122.901 40.3773C122.917 40.2604 122.932 40.1436 122.932 40.0165Z" fill="#5E5E5E"/>
<path d="M139.493 36.7485L138.314 42.7559H137.221L137.74 40.1029H134.609L134.091 42.7559H132.998L134.177 36.7485H135.27L134.762 39.3405H137.892L138.401 36.7485H139.493Z" fill="#5E5E5E"/>
<path d="M147.126 38.4156C147.517 38.751 147.715 39.1983 147.715 39.7624C147.715 39.8946 147.7 40.0521 147.67 40.2351C147.644 40.3621 147.599 40.5197 147.538 40.7027H143.507C143.502 40.7433 143.497 40.8043 143.497 40.8856C143.497 41.2261 143.614 41.4955 143.848 41.6988C144.082 41.9021 144.386 42.0038 144.763 42.0038C145.357 42.0038 145.815 41.7801 146.13 41.338H147.309C147.065 41.775 146.709 42.1359 146.236 42.4154C145.764 42.695 145.22 42.8373 144.6 42.8373C144.158 42.8373 143.772 42.761 143.441 42.6035C143.111 42.4459 142.852 42.2223 142.664 41.9326C142.481 41.6429 142.384 41.3024 142.384 40.911C142.384 40.7433 142.404 40.5654 142.44 40.3774C142.536 39.8895 142.73 39.4575 143.024 39.0865C143.319 38.7155 143.685 38.4309 144.122 38.2276C144.559 38.0243 145.037 37.9277 145.555 37.9277C146.211 37.9175 146.735 38.0802 147.126 38.4156ZM146.597 39.7726C146.597 39.4575 146.48 39.2034 146.247 39.0204C146.013 38.8374 145.713 38.746 145.342 38.746C144.951 38.746 144.6 38.8578 144.29 39.0814C143.975 39.305 143.761 39.61 143.65 39.9962H146.577C146.587 39.8946 146.597 39.8183 146.597 39.7726Z" fill="#5E5E5E"/>
<path d="M151.511 39.0813C151.8 38.7103 152.156 38.4257 152.578 38.2224C153 38.0191 153.442 37.9175 153.899 37.9175C154.316 37.9175 154.662 37.9886 154.941 38.136C155.221 38.2834 155.434 38.4664 155.572 38.6849L155.704 37.9937H156.807L155.876 42.7559H154.774L154.916 42.0494C154.687 42.2731 154.398 42.4611 154.052 42.6085C153.706 42.7559 153.325 42.8321 152.919 42.8321C152.522 42.8321 152.171 42.7508 151.861 42.5882C151.551 42.4255 151.307 42.1968 151.135 41.9021C150.957 41.6073 150.87 41.2668 150.87 40.8805C150.87 40.7077 150.891 40.5298 150.926 40.3519C151.028 39.8742 151.221 39.4524 151.511 39.0813ZM155.287 40.0165C155.287 39.6302 155.16 39.3253 154.911 39.1068C154.657 38.8831 154.347 38.7764 153.966 38.7764C153.686 38.7764 153.412 38.8374 153.142 38.9644C152.873 39.0864 152.639 39.2694 152.446 39.5083C152.248 39.7471 152.116 40.0317 152.055 40.357C152.029 40.4637 152.019 40.5857 152.019 40.7128C152.019 41.1041 152.146 41.4141 152.395 41.6429C152.649 41.8716 152.959 41.9834 153.34 41.9834C153.62 41.9834 153.894 41.9224 154.164 41.7953C154.433 41.6683 154.667 41.4853 154.865 41.2363C155.063 40.9923 155.195 40.7077 155.256 40.3773C155.277 40.2604 155.287 40.1436 155.287 40.0165Z" fill="#5E5E5E"/>
<path d="M162.249 36.3623L160.993 42.7559H159.901L161.156 36.3623H162.249Z" fill="#5E5E5E"/>
<path d="M166.542 41.4343C166.527 41.5156 166.522 41.5665 166.522 41.5919C166.522 41.7139 166.563 41.8003 166.644 41.8562C166.725 41.9121 166.863 41.9375 167.056 41.9375H167.727L167.564 42.7608H166.7C166.278 42.7608 165.958 42.6846 165.734 42.5321C165.511 42.3796 165.399 42.1357 165.399 41.8003C165.399 41.6732 165.409 41.5512 165.434 41.4394L165.953 38.8017H165.333L165.485 37.9986H166.115L166.344 36.8145H167.447L167.218 37.9986H168.494L168.342 38.8017H167.061L166.542 41.4343Z" fill="#5E5E5E"/>
<path d="M176.107 38.319C176.427 38.5884 176.584 38.9696 176.584 39.4625C176.584 39.5947 176.569 39.7573 176.539 39.9454L175.985 42.7559H174.902L175.431 40.0928C175.456 39.9301 175.466 39.8183 175.466 39.7472C175.466 39.4321 175.37 39.1881 175.177 39.0204C174.984 38.8527 174.714 38.7713 174.369 38.7713C173.952 38.7713 173.606 38.8832 173.322 39.1119C173.037 39.3406 172.859 39.6658 172.783 40.0928V40.0775L172.254 42.7559H171.162L172.417 36.3623H173.51L173.078 38.5477C173.301 38.3444 173.566 38.192 173.871 38.0801C174.175 37.9734 174.501 37.9175 174.836 37.9175C175.365 37.9175 175.792 38.0496 176.107 38.319Z" fill="#5E5E5E"/>
<path d="M180.639 39.0763C180.929 38.7052 181.29 38.4206 181.722 38.2173C182.154 38.014 182.621 37.9175 183.124 37.9175C183.765 37.9175 184.263 38.0547 184.629 38.3292C184.995 38.6036 185.198 38.9949 185.249 39.4981H184.07C184.019 39.2643 183.902 39.0763 183.714 38.9441C183.531 38.812 183.277 38.7459 182.957 38.7459C182.509 38.7459 182.128 38.8882 181.808 39.1728C181.488 39.4574 181.28 39.8589 181.178 40.3672C181.147 40.5501 181.132 40.7026 181.132 40.8144C181.132 41.1956 181.239 41.4853 181.447 41.6937C181.656 41.897 181.95 41.9986 182.327 41.9986C182.957 41.9986 183.424 41.7496 183.724 41.2464H184.903C184.654 41.7293 184.293 42.1155 183.816 42.4001C183.338 42.6847 182.789 42.827 182.164 42.827C181.498 42.827 180.975 42.6542 180.583 42.3137C180.192 41.9732 179.999 41.5056 179.999 40.9161C179.999 40.7382 180.019 40.5552 180.055 40.3621C180.156 39.8793 180.349 39.4473 180.639 39.0763Z" fill="#5E5E5E"/>
<path d="M188.968 39.0813C189.258 38.7103 189.613 38.4257 190.035 38.2224C190.457 38.0191 190.899 37.9175 191.357 37.9175C191.773 37.9175 192.119 37.9886 192.399 38.136C192.678 38.2834 192.892 38.4664 193.029 38.6849L193.161 37.9937H194.264L193.334 42.7559H192.231L192.373 42.0494C192.144 42.2731 191.855 42.4611 191.509 42.6085C191.164 42.7559 190.782 42.8321 190.376 42.8321C189.979 42.8321 189.629 42.7508 189.319 42.5882C189.009 42.4255 188.765 42.1968 188.592 41.9021C188.414 41.6073 188.328 41.2668 188.328 40.8805C188.328 40.7077 188.348 40.5298 188.384 40.3519C188.485 39.8742 188.678 39.4524 188.968 39.0813ZM192.744 40.0165C192.744 39.6302 192.617 39.3253 192.368 39.1068C192.114 38.8831 191.804 38.7764 191.423 38.7764C191.143 38.7764 190.869 38.8374 190.599 38.9644C190.33 39.0864 190.096 39.2694 189.903 39.5083C189.705 39.7471 189.573 40.0317 189.512 40.357C189.486 40.4637 189.476 40.5857 189.476 40.7128C189.476 41.1041 189.603 41.4141 189.852 41.6429C190.106 41.8716 190.416 41.9834 190.798 41.9834C191.077 41.9834 191.352 41.9224 191.621 41.7953C191.89 41.6683 192.124 41.4853 192.322 41.2363C192.521 40.9923 192.653 40.7077 192.714 40.3773C192.734 40.2604 192.744 40.1436 192.744 40.0165Z" fill="#5E5E5E"/>
<path d="M199.99 38.1561C200.285 37.9934 200.615 37.9121 200.981 37.9121L200.778 38.9337H200.499C200.077 38.9337 199.741 39.0302 199.482 39.2183C199.228 39.4063 199.05 39.7367 198.948 40.2043L198.45 42.7505H197.358L198.288 37.9883H199.38L199.218 38.8269C199.436 38.5423 199.69 38.3187 199.99 38.1561Z" fill="#5E5E5E"/>
<path d="M208.411 38.4156C208.802 38.751 209.001 39.1983 209.001 39.7624C209.001 39.8946 208.985 40.0521 208.955 40.2351C208.929 40.3621 208.884 40.5197 208.823 40.7027H204.792C204.787 40.7433 204.782 40.8043 204.782 40.8856C204.782 41.2261 204.899 41.4955 205.133 41.6988C205.367 41.9021 205.672 42.0038 206.048 42.0038C206.642 42.0038 207.1 41.7801 207.415 41.338H208.594C208.35 41.775 207.994 42.1359 207.522 42.4154C207.049 42.695 206.505 42.8373 205.885 42.8373C205.443 42.8373 205.057 42.761 204.726 42.6035C204.396 42.4459 204.137 42.2223 203.949 41.9326C203.766 41.6429 203.669 41.3024 203.669 40.911C203.669 40.7433 203.69 40.5654 203.725 40.3774C203.822 39.8895 204.015 39.4575 204.31 39.0865C204.604 38.7155 204.97 38.4309 205.407 38.2276C205.844 38.0243 206.322 37.9277 206.841 37.9277C207.496 37.9175 208.02 38.0802 208.411 38.4156ZM207.882 39.7726C207.882 39.4575 207.766 39.2034 207.532 39.0204C207.298 38.8374 206.998 38.746 206.627 38.746C206.236 38.746 205.885 38.8578 205.575 39.0814C205.26 39.305 205.047 39.61 204.935 39.9962H207.862C207.872 39.8946 207.882 39.8183 207.882 39.7726Z" fill="#5E5E5E"/>
</svg>
